<svg xmlns="http://www.w3.org/2000/svg" viewBox="0 0 512 512">
  <path d="M256 480c-96-64-160-160-160-256V96l160-48 160 48v128c0 96-64 192-160 256z" fill="#1e293b" stroke="#3b82f6" stroke-width="24" stroke-linejoin="round"/>
  
  <path d="M60 160c-20 0-40 20-40 50s10 40 30 50c-10 10-20 30-10 50 10 20 40 30 60 20l20-40c-20-10-30-30-20-50 10-20 30-30 50-30-20-20-30-40-20-60 10-20 30-30 50-30-20-20-40-10-60 0-10 10-20 30-30 40z" fill="#22c55e" opacity="0.9"/>
  
  <path d="M452 160c20 0 40 20 40 50s-10 40-30 50c10 10 20 30 10 50-10 20-40 30-60 20l-20-40c20-10 30-30 20-50-10-20-30-30-50-30 20-20 30-40 20-60-10-20-30-30-50-30 20-20 40-10 60 0 10 10 20 30 30 40z" fill="#ef4444" opacity="0.9"/>

  <path d="M190 140h60c30 0 50 20 50 50s-20 50-50 50h-20l30 60h-40l-30-60h-20v60h-35V140z M225 210h20c10 0 15-5 15-15s-5-15-15-15h-20v30z" fill="#3b82f6"/>

  <path d="M300 220l20 80 50-100h35l-70 140h-30l-35-100h30z" fill="#fbbf24"/>

  <path d="M256 48l140 42v112c0 84-56 168-140 224V48z" fill="#ffffff" fill-opacity="0.05"/>
</svg>
